http://kickass.to/search/s08e0/?rss=1
HTTP/1.1 200 OK
Server: nginx/1.5.13
Date: Tue, 22 Jul 2014 09:12:17 GMT
Content-Type: application/rss+xml; charset=utf-8
Connection: close
X-Powered-By: PHP/5.5.13-pl0-gentoo
Set-Cookie: lang_detected=en; expires=Wed, 22-Jul-2015 09:16:57 GMT; Max-Age=31536000; path=/; domain=.kickass.to
Set-Cookie: lang_code=en; expires=Wed, 22-Jul-2015 09:16:57 GMT; Max-Age=31536000; path=/; domain=.kickass.to
Cache-Control: public
Set-Cookie: country_code=US; Path=/;

<?xml version="1.0" encoding="UTF-8"?>
<rss version="2.0" xmlns:torrent="http://xmlns.ezrss.it/0.1/">
<channel>
    <title>Torrents by keyword "s08e0" - KickassTorrents</title>
    <link>http://kickass.to/</link>
    <description>Torrents by keyword "s08e0"</description>
    <item>
        <title>Ice Road Truckers S08E03 Into the Vortex 720p HDTV x264-TERRA</title>
      <description><![CDATA[[b]ice.road.truckers.s08e03.into.the.vortex.720p.hdtv.x264-terra.mkv[/b]

[b]SIZE:[/b] 1211960929 bytes (1.13 GiB), 

[b]DURATION:[/b] 00:41:59, 

[b]AVG-BITRATE:[/b] 3849 kb/s

[b]AUDIO:[/b] ac3, 48000 Hz, 5:1 (eng)

[b]VIDEO:[/b] h264, yuv420p, 1280x720, 29.97 fps(r) (eng)
Subtitles: eng 

[b]SCREENS:[/b]
[url=http://www.vivaex.com/viewer.php?file=15653559394652665501.jpg][img]http://www.vivaex.com/images/15653559394652665501_thumb.jpg[/img][/url] 

[url=http://www.vivaex.com/viewer.php?file=23641331923391013428.jpg][size=150][b]View large Image[/b][/size][/url]

[url=http://www.vivaex.com/viewer.php?file=25800938591237259455.jpg][size=150][b]View large Image[/b][/size][/url]

[b]DESCRIPTION : [/b]A brutal storm descends on the winter roads, and frozen hell comes with it. Blinding winds, driving snow, and bone-chilling cold assault the ice road truckers as they fight their way ... 




[url=https://www.facebook.com/pages/High-Quality-Download-Links/1446110842281782]https://www.facebook.com/pages/High-Quality-Download-Links/1446110842281782[/url]

NOTE: If Rar files, then use winrar for decompress it http://www.rarlab.com/download.htm 
 Most of video format are supported by VLC http://www.videolan.org/vlc/]]></description>
        <category>TV</category>
      <author>http://kickass.to/user/brasse0/</author>        <link>http://kickass.to/ice-road-truckers-s08e03-into-the-vortex-720p-hdtv-x264-terra-t9362210.html</link>
        <guid>http://kickass.to/ice-road-truckers-s08e03-into-the-vortex-720p-hdtv-x264-terra-t9362210.html</guid>
        <pubDate>Tue, 22 Jul 2014 07:33:31 +0000</pubDate>
        <torrent:contentLength>1211971083</torrent:contentLength>
        <torrent:infoHash>AAC48344FEF433FA6F2F30511077CF28411296F7</torrent:infoHash>
        <torrent:magnetURI><![CDATA[magnet:?xt=urn:btih:AAC48344FEF433FA6F2F30511077CF28411296F7&dn=ice+road+truckers+s08e03+into+the+vortex+720p+hdtv+x264+terra&tr=udp%3A%2F%2Fopen.demonii.com%3A1337%2Fannounce]]></torrent:magnetURI>
        <torrent:seeds>1</torrent:seeds>
        <torrent:peers>32</torrent:peers>
        <torrent:verified>1</torrent:verified>
        <torrent:fileName>ice.road.truckers.s08e03.into.the.vortex.720p.hdtv.x264.terra.torrent</torrent:fileName>
        <enclosure url="http://torcache.net/torrent/AAC48344FEF433FA6F2F30511077CF28411296F7.torrent?title=[kickass.to]ice.road.truckers.s08e03.into.the.vortex.720p.hdtv.x264.terra" length="1211971083" type="application/x-bittorrent" />
    </item>
    <item>
        <title>Ice.Road.Truckers.S08E03.Into.the.Vortex.720p.HDTV.x264-TERRA[rartv]</title>
      <description><![CDATA[Ice.Road.Truckers.S08E03.Into.the.Vortex.720p.HDTV.x264-TERRA[rartv]

[img]//dyncdn.me/posters2/5/5b101fd6f8968ec9716ad30bb9bc3a341ce62157.jpg[/img]



[mediainfo]

Video
ID : 1
Format : AVC
Format/Info : Advanced Video Codec
Format profile : High@L4.1
Format settings, CABAC : Yes
Format settings, ReFrames : 5 frames
Codec ID : V_MPEG4/ISO/AVC
Duration : 41mn 59s
Bit rate : 3 387 Kbps
Width : 1 280 pixels
Height : 720 pixels
Display aspect ratio : 16:9
Frame rate mode : Constant
Frame rate : 29.970 fps
Color space : YUV
Chroma subsampling : 4:2:0
Bit depth : 8 bits
Scan type : Progressive
Bits/(Pixel*Frame) : 0.123
Stream size : 1 017 MiB (88%)
Writing library : x264 core 142 r2431M ac76440
Encoding settings : cabac=1 / ref=5 / deblock=1:0:0 / analyse=0x3:0x113 / me=umh / subme=8 / psy=1 / psy_rd=1.00:0.00 / mixed_ref=1 / me_range=16 / chroma_me=1 / trellis=1 / 8x8dct=1 / cqm=0 / deadzone=21,11 / fast_pskip=1 / chroma_qp_offset=-2 / threads=12 / lookahead_threads=2 / sliced_threads=0 / nr=0 / decimate=1 / interlaced=0 / bluray_compat=0 / constrained_intra=0 / bframes=3 / b_pyramid=2 / b_adapt=2 / b_bias=0 / direct=3 / weightb=1 / open_gop=0 / weightp=2 / keyint=250 / keyint_min=25 / scenecut=40 / intra_refresh=0 / rc_lookahead=50 / rc=crf / mbtree=1 / crf=21.0 / qcomp=0.60 / qpmin=0 / qpmax=69 / qpstep=4 / ip_ratio=1.40 / aq=1:1.00
Language : English
Default : Yes
Forced : No
Matrix coefficients : BT.709

Audio
ID : 2
Format : AC-3
Format/Info : Audio Coding 3
Mode extension : CM (complete main)
Format settings, Endianness : Big
Codec ID : A_AC3
Duration : 41mn 59s
Bit rate mode : Constant
Bit rate : 384 Kbps
Channel(s) : 6 channels
Channel positions : Front: L C R, Side: L R, LFE
Sampling rate : 48.0 KHz
Bit depth : 16 bits
Compression mode : Lossy
Stream size : 115 MiB (10%)
Default : No
Forced : No

Text
ID : 3
Format : UTF-8
Codec ID : S_TEXT/UTF8
Codec ID/Info : UTF-8 Plain Text
Default : No
Forced : No




[/mediainfo]

]]></description>
        <category>TV</category>
      <author>http://kickass.to/user/TryMeS/</author>        <link>http://kickass.to/ice-road-truckers-s08e03-into-the-vortex-720p-hdtv-x264-terra-rartv-t9362205.html</link>
        <guid>http://kickass.to/ice-road-truckers-s08e03-into-the-vortex-720p-hdtv-x264-terra-rartv-t9362205.html</guid>
        <pubDate>Tue, 22 Jul 2014 07:32:37 +0000</pubDate>
        <torrent:contentLength>1211966023</torrent:contentLength>
        <torrent:infoHash>5B101FD6F8968EC9716AD30BB9BC3A341CE62157</torrent:infoHash>
        <torrent:magnetURI><![CDATA[magnet:?xt=urn:btih:5B101FD6F8968EC9716AD30BB9BC3A341CE62157&dn=ice+road+truckers+s08e03+into+the+vortex+720p+hdtv+x264+terra+rartv&tr=udp%3A%2F%2F12.rarbg.me%3A80%2Fannounce&tr=udp%3A%2F%2Fopen.demonii.com%3A1337]]></torrent:magnetURI>
        <torrent:seeds>67</torrent:seeds>
        <torrent:peers>244</torrent:peers>
        <torrent:verified>1</torrent:verified>
        <torrent:fileName>ice.road.truckers.s08e03.into.the.vortex.720p.hdtv.x264.terra.rartv.torrent</torrent:fileName>
        <enclosure url="http://torcache.net/torrent/5B101FD6F8968EC9716AD30BB9BC3A341CE62157.torrent?title=[kickass.to]ice.road.truckers.s08e03.into.the.vortex.720p.hdtv.x264.terra.rartv" length="1211966023" type="application/x-bittorrent" />
    </item>
    <item>
        <title>Ice.Road.Truckers.S08E01.The.Gathering.Storm.HDTV.x264-W4F[rartv]</title>
      <description><![CDATA[Ice.Road.Truckers.S08E01.The.Gathering.Storm.HDTV.x264-W4F[rartv]

[img]//dyncdn.me/posters2/8/853ecde541c485e65eb96ac2cce59838f807ba15.jpg[/img]



[mediainfo]

Video
ID : 1
Format : AVC
Format/Info : Advanced Video Codec
Format profile : High@L3.1
Format settings, CABAC : Yes
Format settings, ReFrames : 5 frames
Codec ID : avc1
Codec ID/Info : Advanced Video Coding
Duration : 42mn 59s
Bit rate : 1 004 Kbps
Maximum bit rate : 7 807 Kbps
Width : 720 pixels
Height : 404 pixels
Display aspect ratio : 16:9
Frame rate mode : Constant
Frame rate : 29.970 fps
Color space : YUV
Chroma subsampling : 4:2:0
Bit depth : 8 bits
Scan type : Progressive
Bits/(Pixel*Frame) : 0.115
Stream size : 309 MiB (88%)
Writing library : x264 core 142 r2431 ac76440
Encoding settings : cabac=1 / ref=5 / deblock=1:0:0 / analyse=0x3:0x113 / me=umh / subme=8 / psy=1 / psy_rd=1.00:0.00 / mixed_ref=1 / me_range=16 / chroma_me=1 / trellis=1 / 8x8dct=1 / cqm=0 / deadzone=21,11 / fast_pskip=1 / chroma_qp_offset=-2 / threads=12 / lookahead_threads=2 / sliced_threads=0 / nr=0 / decimate=1 / interlaced=0 / bluray_compat=0 / constrained_intra=0 / bframes=3 / b_pyramid=2 / b_adapt=2 / b_bias=0 / direct=3 / weightb=1 / open_gop=0 / weightp=2 / keyint=250 / keyint_min=25 / scenecut=40 / intra_refresh=0 / rc_lookahead=50 / rc=crf / mbtree=1 / crf=22.0 / qcomp=0.60 / qpmin=0 / qpmax=69 / qpstep=4 / ip_ratio=1.40 / aq=1:1.00
Encoded date : UTC 2014-07-20 18:12:38
Tagged date : UTC 2014-07-20 18:13:28
Matrix coefficients : BT.709

Audio
ID : 2
Format : AAC
Format/Info : Advanced Audio Codec
Format profile : LC
Codec ID : 40
Duration : 43mn 0s
Bit rate mode : Variable
Bit rate : 129 Kbps
Maximum bit rate : 152 Kbps
Channel(s) : 2 channels
Channel positions : Front: L R
Sampling rate : 48.0 KHz
Compression mode : Lossy
Stream size : 39.6 MiB (11%)
Language : English
Encoded date : UTC 2014-07-20 18:13:27
Tagged date : UTC 2014-07-20 18:13:28

Text
ID : 3
Format : Timed Text
Codec ID : tx3g
Duration : 42mn 58s
Bit rate mode : Variable
Bit rate : 118 bps
Stream size : 37.0 KiB (0%)
Language : English
Encoded date : UTC 2014-07-20 18:13:28
Tagged date : UTC 2014-07-20 18:13:28




[/mediainfo]

]]></description>
        <category>TV</category>
      <author>http://kickass.to/user/TryMeS/</author>        <link>http://kickass.to/ice-road-truckers-s08e01-the-gathering-storm-hdtv-x264-w4f-rartv-t9357506.html</link>
        <guid>http://kickass.to/ice-road-truckers-s08e01-the-gathering-storm-hdtv-x264-w4f-rartv-t9357506.html</guid>
        <pubDate>Mon, 21 Jul 2014 04:09:22 +0000</pubDate>
        <torrent:contentLength>366720747</torrent:contentLength>
        <torrent:infoHash>853ECDE541C485E65EB96AC2CCE59838F807BA15</torrent:infoHash>
        <torrent:magnetURI><![CDATA[magnet:?xt=urn:btih:853ECDE541C485E65EB96AC2CCE59838F807BA15&dn=ice+road+truckers+s08e01+the+gathering+storm+hdtv+x264+w4f+rartv&tr=udp%3A%2F%2F12.rarbg.me%3A80%2Fannounce&tr=udp%3A%2F%2Fopen.demonii.com%3A1337]]></torrent:magnetURI>
        <torrent:seeds>26</torrent:seeds>
        <torrent:peers>34</torrent:peers>
        <torrent:verified>1</torrent:verified>
        <torrent:fileName>ice.road.truckers.s08e01.the.gathering.storm.hdtv.x264.w4f.rartv.torrent</torrent:fileName>
        <enclosure url="http://torcache.net/torrent/853ECDE541C485E65EB96AC2CCE59838F807BA15.torrent?title=[kickass.to]ice.road.truckers.s08e01.the.gathering.storm.hdtv.x264.w4f.rartv" length="366720747" type="application/x-bittorrent" />
    </item>
    <item>
        <title>American Dad S08E04 DVDRip X264-REWARD</title>
      <description><![CDATA[http://www.torrenting.com

Sign up is OPEN - for time being. Come and have fun.]]></description>
        <category>TV</category>
      <author>http://kickass.to/user/TvTeam/</author>        <link>http://kickass.to/american-dad-s08e04-dvdrip-x264-reward-t9351039.html</link>
        <guid>http://kickass.to/american-dad-s08e04-dvdrip-x264-reward-t9351039.html</guid>
        <pubDate>Sun, 20 Jul 2014 08:15:02 +0000</pubDate>
        <torrent:contentLength>82863404</torrent:contentLength>
        <torrent:infoHash>D83586AEC38B29EDC87AD99663FFBA26AD5BC983</torrent:infoHash>
        <torrent:magnetURI><![CDATA[magnet:?xt=urn:btih:D83586AEC38B29EDC87AD99663FFBA26AD5BC983&dn=american+dad+s08e04+dvdrip+x264+reward&tr=udp%3A%2F%2Fopen.demonii.com%3A1337%2Fannounce]]></torrent:magnetURI>
        <torrent:seeds>3</torrent:seeds>
        <torrent:peers>7</torrent:peers>
        <torrent:verified>1</torrent:verified>
        <torrent:fileName>american.dad.s08e04.dvdrip.x264.reward.torrent</torrent:fileName>
        <enclosure url="http://torcache.net/torrent/D83586AEC38B29EDC87AD99663FFBA26AD5BC983.torrent?title=[kickass.to]american.dad.s08e04.dvdrip.x264.reward" length="82863404" type="application/x-bittorrent" />
    </item>
    <item>
        <title>American Dad S08E07 DVDRip X264-REWARD</title>
      <description><![CDATA[http://www.torrenting.com

Sign up is OPEN - for time being. Come and have fun.]]></description>
        <category>TV</category>
      <author>http://kickass.to/user/TvTeam/</author>        <link>http://kickass.to/american-dad-s08e07-dvdrip-x264-reward-t9351040.html</link>
        <guid>http://kickass.to/american-dad-s08e07-dvdrip-x264-reward-t9351040.html</guid>
        <pubDate>Sun, 20 Jul 2014 08:15:02 +0000</pubDate>
        <torrent:contentLength>70764020</torrent:contentLength>
        <torrent:infoHash>1F7B665D2DCC858F4AC51E50BEB1FA87B2A3BBA1</torrent:infoHash>
        <torrent:magnetURI><![CDATA[magnet:?xt=urn:btih:1F7B665D2DCC858F4AC51E50BEB1FA87B2A3BBA1&dn=american+dad+s08e07+dvdrip+x264+reward&tr=udp%3A%2F%2Fopen.demonii.com%3A1337%2Fannounce]]></torrent:magnetURI>
        <torrent:seeds>1</torrent:seeds>
        <torrent:peers>2</torrent:peers>
        <torrent:verified>1</torrent:verified>
        <torrent:fileName>american.dad.s08e07.dvdrip.x264.reward.torrent</torrent:fileName>
        <enclosure url="http://torcache.net/torrent/1F7B665D2DCC858F4AC51E50BEB1FA87B2A3BBA1.torrent?title=[kickass.to]american.dad.s08e07.dvdrip.x264.reward" length="70764020" type="application/x-bittorrent" />
    </item>
    <item>
        <title>American Dad S08E03 DVDRip X264-REWARD</title>
      <description><![CDATA[http://www.torrenting.com

Sign up is OPEN - for time being. Come and have fun.]]></description>
        <category>TV</category>
      <author>http://kickass.to/user/TvTeam/</author>        <link>http://kickass.to/american-dad-s08e03-dvdrip-x264-reward-t9351041.html</link>
        <guid>http://kickass.to/american-dad-s08e03-dvdrip-x264-reward-t9351041.html</guid>
        <pubDate>Sun, 20 Jul 2014 08:15:02 +0000</pubDate>
        <torrent:contentLength>81273553</torrent:contentLength>
        <torrent:infoHash>7405D0E7020C775FDFD8671516B4D747E3B815EC</torrent:infoHash>
        <torrent:magnetURI><![CDATA[magnet:?xt=urn:btih:7405D0E7020C775FDFD8671516B4D747E3B815EC&dn=american+dad+s08e03+dvdrip+x264+reward&tr=udp%3A%2F%2Fopen.demonii.com%3A1337%2Fannounce]]></torrent:magnetURI>
        <torrent:seeds>1</torrent:seeds>
        <torrent:peers>4</torrent:peers>
        <torrent:verified>1</torrent:verified>
        <torrent:fileName>american.dad.s08e03.dvdrip.x264.reward.torrent</torrent:fileName>
        <enclosure url="http://torcache.net/torrent/7405D0E7020C775FDFD8671516B4D747E3B815EC.torrent?title=[kickass.to]american.dad.s08e03.dvdrip.x264.reward" length="81273553" type="application/x-bittorrent" />
    </item>
    <item>
        <title>American Dad S08E08 DVDRip X264-REWARD</title>
      <description><![CDATA[http://www.torrenting.com

Sign up is OPEN - for time being. Come and have fun.]]></description>
        <category>TV</category>
      <author>http://kickass.to/user/TvTeam/</author>        <link>http://kickass.to/american-dad-s08e08-dvdrip-x264-reward-t9351033.html</link>
        <guid>http://kickass.to/american-dad-s08e08-dvdrip-x264-reward-t9351033.html</guid>
        <pubDate>Sun, 20 Jul 2014 08:12:03 +0000</pubDate>
        <torrent:contentLength>61053760</torrent:contentLength>
        <torrent:infoHash>C3704B545BE7F74A11FFA88E0FA62B78CE533D5A</torrent:infoHash>
        <torrent:magnetURI><![CDATA[magnet:?xt=urn:btih:C3704B545BE7F74A11FFA88E0FA62B78CE533D5A&dn=american+dad+s08e08+dvdrip+x264+reward&tr=udp%3A%2F%2Fopen.demonii.com%3A1337%2Fannounce]]></torrent:magnetURI>
        <torrent:seeds>1</torrent:seeds>
        <torrent:peers>5</torrent:peers>
        <torrent:verified>1</torrent:verified>
        <torrent:fileName>american.dad.s08e08.dvdrip.x264.reward.torrent</torrent:fileName>
        <enclosure url="http://torcache.net/torrent/C3704B545BE7F74A11FFA88E0FA62B78CE533D5A.torrent?title=[kickass.to]american.dad.s08e08.dvdrip.x264.reward" length="61053760" type="application/x-bittorrent" />
    </item>
    <item>
        <title>American Dad S08E06 DVDRip X264-REWARD</title>
      <description><![CDATA[http://www.torrenting.com

Sign up is OPEN - for time being. Come and have fun.]]></description>
        <category>TV</category>
      <author>http://kickass.to/user/TvTeam/</author>        <link>http://kickass.to/american-dad-s08e06-dvdrip-x264-reward-t9351030.html</link>
        <guid>http://kickass.to/american-dad-s08e06-dvdrip-x264-reward-t9351030.html</guid>
        <pubDate>Sun, 20 Jul 2014 08:12:02 +0000</pubDate>
        <torrent:contentLength>77849327</torrent:contentLength>
        <torrent:infoHash>6FBAC07A9CBED0451C196F95372210F997DEF5DD</torrent:infoHash>
        <torrent:magnetURI><![CDATA[magnet:?xt=urn:btih:6FBAC07A9CBED0451C196F95372210F997DEF5DD&dn=american+dad+s08e06+dvdrip+x264+reward&tr=udp%3A%2F%2Fopen.demonii.com%3A1337%2Fannounce]]></torrent:magnetURI>
        <torrent:seeds>1</torrent:seeds>
        <torrent:peers>3</torrent:peers>
        <torrent:verified>1</torrent:verified>
        <torrent:fileName>american.dad.s08e06.dvdrip.x264.reward.torrent</torrent:fileName>
        <enclosure url="http://torcache.net/torrent/6FBAC07A9CBED0451C196F95372210F997DEF5DD.torrent?title=[kickass.to]american.dad.s08e06.dvdrip.x264.reward" length="77849327" type="application/x-bittorrent" />
    </item>
    <item>
        <title>American Dad S08E05 DVDRip X264-REWARD</title>
      <description><![CDATA[http://www.torrenting.com

Sign up is OPEN - for time being. Come and have fun.]]></description>
        <category>TV</category>
      <author>http://kickass.to/user/TvTeam/</author>        <link>http://kickass.to/american-dad-s08e05-dvdrip-x264-reward-t9351032.html</link>
        <guid>http://kickass.to/american-dad-s08e05-dvdrip-x264-reward-t9351032.html</guid>
        <pubDate>Sun, 20 Jul 2014 08:12:02 +0000</pubDate>
        <torrent:contentLength>73364134</torrent:contentLength>
        <torrent:infoHash>C7207F09A0A980101BDF107A72868197D79103D4</torrent:infoHash>
        <torrent:magnetURI><![CDATA[magnet:?xt=urn:btih:C7207F09A0A980101BDF107A72868197D79103D4&dn=american+dad+s08e05+dvdrip+x264+reward&tr=udp%3A%2F%2Fopen.demonii.com%3A1337%2Fannounce]]></torrent:magnetURI>
        <torrent:seeds>1</torrent:seeds>
        <torrent:peers>3</torrent:peers>
        <torrent:verified>1</torrent:verified>
        <torrent:fileName>american.dad.s08e05.dvdrip.x264.reward.torrent</torrent:fileName>
        <enclosure url="http://torcache.net/torrent/C7207F09A0A980101BDF107A72868197D79103D4.torrent?title=[kickass.to]american.dad.s08e05.dvdrip.x264.reward" length="73364134" type="application/x-bittorrent" />
    </item>
    <item>
        <title>American Dad S08E09 DVDRip X264-REWARD</title>
      <description><![CDATA[http://www.torrenting.com

Sign up is OPEN - for time being. Come and have fun.]]></description>
        <category>TV</category>
      <author>http://kickass.to/user/TvTeam/</author>        <link>http://kickass.to/american-dad-s08e09-dvdrip-x264-reward-t9351028.html</link>
        <guid>http://kickass.to/american-dad-s08e09-dvdrip-x264-reward-t9351028.html</guid>
        <pubDate>Sun, 20 Jul 2014 08:12:01 +0000</pubDate>
        <torrent:contentLength>74400635</torrent:contentLength>
        <torrent:infoHash>7CFA7B36E5B68254E61117FFAFD7BCF8A592C849</torrent:infoHash>
        <torrent:magnetURI><![CDATA[magnet:?xt=urn:btih:7CFA7B36E5B68254E61117FFAFD7BCF8A592C849&dn=american+dad+s08e09+dvdrip+x264+reward&tr=udp%3A%2F%2Fopen.demonii.com%3A1337%2Fannounce]]></torrent:magnetURI>
        <torrent:seeds>1</torrent:seeds>
        <torrent:peers>3</torrent:peers>
        <torrent:verified>1</torrent:verified>
        <torrent:fileName>american.dad.s08e09.dvdrip.x264.reward.torrent</torrent:fileName>
        <enclosure url="http://torcache.net/torrent/7CFA7B36E5B68254E61117FFAFD7BCF8A592C849.torrent?title=[kickass.to]american.dad.s08e09.dvdrip.x264.reward" length="74400635" type="application/x-bittorrent" />
    </item>
    <item>
        <title>American Dad S08E01 DVDRip X264-REWARD</title>
      <description><![CDATA[http://www.torrenting.com

Sign up is OPEN - for time being. Come and have fun.]]></description>
        <category>TV</category>
      <author>http://kickass.to/user/TvTeam/</author>        <link>http://kickass.to/american-dad-s08e01-dvdrip-x264-reward-t9350998.html</link>
        <guid>http://kickass.to/american-dad-s08e01-dvdrip-x264-reward-t9350998.html</guid>
        <pubDate>Sun, 20 Jul 2014 08:06:02 +0000</pubDate>
        <torrent:contentLength>65562920</torrent:contentLength>
        <torrent:infoHash>5B3C387505F00DD9022DCC38AFDDBBB8BD35A39C</torrent:infoHash>
        <torrent:magnetURI><![CDATA[magnet:?xt=urn:btih:5B3C387505F00DD9022DCC38AFDDBBB8BD35A39C&dn=american+dad+s08e01+dvdrip+x264+reward&tr=udp%3A%2F%2Fopen.demonii.com%3A1337%2Fannounce]]></torrent:magnetURI>
        <torrent:seeds>3</torrent:seeds>
        <torrent:peers>12</torrent:peers>
        <torrent:verified>1</torrent:verified>
        <torrent:fileName>american.dad.s08e01.dvdrip.x264.reward.torrent</torrent:fileName>
        <enclosure url="http://torcache.net/torrent/5B3C387505F00DD9022DCC38AFDDBBB8BD35A39C.torrent?title=[kickass.to]american.dad.s08e01.dvdrip.x264.reward" length="65562920" type="application/x-bittorrent" />
    </item>
    <item>
        <title>American Dad S08E02 DVDRip X264-REWARD</title>
      <description><![CDATA[http://www.torrenting.com

Sign up is OPEN - for time being. Come and have fun.]]></description>
        <category>TV</category>
      <author>http://kickass.to/user/TvTeam/</author>        <link>http://kickass.to/american-dad-s08e02-dvdrip-x264-reward-t9350999.html</link>
        <guid>http://kickass.to/american-dad-s08e02-dvdrip-x264-reward-t9350999.html</guid>
        <pubDate>Sun, 20 Jul 2014 08:06:02 +0000</pubDate>
        <torrent:contentLength>95157452</torrent:contentLength>
        <torrent:infoHash>FA2F4472CDF9F5C2918B70F2A4E44A4F724EA508</torrent:infoHash>
        <torrent:magnetURI><![CDATA[magnet:?xt=urn:btih:FA2F4472CDF9F5C2918B70F2A4E44A4F724EA508&dn=american+dad+s08e02+dvdrip+x264+reward&tr=udp%3A%2F%2Fopen.demonii.com%3A1337%2Fannounce]]></torrent:magnetURI>
        <torrent:seeds>6</torrent:seeds>
        <torrent:peers>10</torrent:peers>
        <torrent:verified>1</torrent:verified>
        <torrent:fileName>american.dad.s08e02.dvdrip.x264.reward.torrent</torrent:fileName>
        <enclosure url="http://torcache.net/torrent/FA2F4472CDF9F5C2918B70F2A4E44A4F724EA508.torrent?title=[kickass.to]american.dad.s08e02.dvdrip.x264.reward" length="95157452" type="application/x-bittorrent" />
    </item>
    <item>
        <title>Ice.Road.Truckers.S08E02.720p.WEB-DL.AAC2.0.H.264-NTb[rartv]</title>
      <description><![CDATA[Ice.Road.Truckers.S08E02.720p.WEB-DL.AAC2.0.H.264-NTb[rartv]

[img]//dyncdn.me/posters2/1/1f83fcecd79727c14eccf3e96f07a19954e769f9.jpg[/img]



[mediainfo]

Video
ID : 2
Format : AVC
Format/Info : Advanced Video Codec
Format profile : Main@L3.1
Format settings, CABAC : No
Format settings, ReFrames : 2 frames
Codec ID : V_MPEG4/ISO/AVC
Duration : 42mn 38s
Width : 960 pixels
Height : 716 pixels
Display aspect ratio : 16:9
Frame rate mode : Constant
Frame rate : 29.970 fps
Color space : YUV
Chroma subsampling : 4:2:0
Bit depth : 8 bits
Scan type : Progressive
Language : English
Default : Yes
Forced : No
Color primaries : BT.709
Transfer characteristics : BT.709
Matrix coefficients : BT.709

Audio
ID : 1
Format : AAC
Format/Info : Advanced Audio Codec
Format profile : LC
Codec ID : A_AAC
Duration : 42mn 38s
Channel(s) : 2 channels
Channel positions : Front: L R
Sampling rate : 48.0 KHz
Compression mode : Lossy
Language : English
Default : Yes
Forced : No

Text
ID : 3
Format : UTF-8
Codec ID : S_TEXT/UTF8
Codec ID/Info : UTF-8 Plain Text
Language : English
Default : No
Forced : No




[/mediainfo]

]]></description>
        <category>TV</category>
      <author>http://kickass.to/user/TryMeS/</author>        <link>http://kickass.to/ice-road-truckers-s08e02-720p-web-dl-aac2-0-h-264-ntb-rartv-t9344526.html</link>
        <guid>http://kickass.to/ice-road-truckers-s08e02-720p-web-dl-aac2-0-h-264-ntb-rartv-t9344526.html</guid>
        <pubDate>Fri, 18 Jul 2014 13:48:32 +0000</pubDate>
        <torrent:contentLength>1360752615</torrent:contentLength>
        <torrent:infoHash>1F83FCECD79727C14ECCF3E96F07A19954E769F9</torrent:infoHash>
        <torrent:magnetURI><![CDATA[magnet:?xt=urn:btih:1F83FCECD79727C14ECCF3E96F07A19954E769F9&dn=ice+road+truckers+s08e02+720p+web+dl+aac2+0+h+264+ntb+rartv&tr=udp%3A%2F%2F12.rarbg.me%3A80%2Fannounce&tr=udp%3A%2F%2Fopen.demonii.com%3A1337]]></torrent:magnetURI>
        <torrent:seeds>11</torrent:seeds>
        <torrent:peers>14</torrent:peers>
        <torrent:verified>1</torrent:verified>
        <torrent:fileName>ice.road.truckers.s08e02.720p.web.dl.aac2.0.h.264.ntb.rartv.torrent</torrent:fileName>
        <enclosure url="http://torcache.net/torrent/1F83FCECD79727C14ECCF3E96F07A19954E769F9.torrent?title=[kickass.to]ice.road.truckers.s08e02.720p.web.dl.aac2.0.h.264.ntb.rartv" length="1360752615" type="application/x-bittorrent" />
    </item>
    <item>
        <title>Ice.Road.Truckers.S08E02.1080p.WEB-DL.AAC2.0.H.264-NTb[rartv]</title>
      <description><![CDATA[Ice.Road.Truckers.S08E02.1080p.WEB-DL.AAC2.0.H.264-NTb[rartv]

[img]//dyncdn.me/posters2/9/9855b6da62199b5cf98b0073d33d742ba1e5cca7.jpg[/img]



[mediainfo]

Video
ID : 2
Format : AVC
Format/Info : Advanced Video Codec
Format profile : High@L4.0
Format settings, CABAC : Yes
Format settings, ReFrames : 5 frames
Codec ID : V_MPEG4/ISO/AVC
Duration : 42mn 38s
Width : 1 432 pixels
Height : 1 070 pixels
Display aspect ratio : 16:9
Frame rate mode : Constant
Frame rate : 29.970 fps
Color space : YUV
Chroma subsampling : 4:2:0
Bit depth : 8 bits
Scan type : Progressive
Language : English
Default : Yes
Forced : No
Color primaries : BT.709
Transfer characteristics : BT.709
Matrix coefficients : BT.709

Audio
ID : 1
Format : AAC
Format/Info : Advanced Audio Codec
Format profile : LC
Codec ID : A_AAC
Duration : 42mn 38s
Channel(s) : 2 channels
Channel positions : Front: L R
Sampling rate : 48.0 KHz
Compression mode : Lossy
Language : English
Default : Yes
Forced : No

Text
ID : 3
Format : UTF-8
Codec ID : S_TEXT/UTF8
Codec ID/Info : UTF-8 Plain Text
Language : English
Default : No
Forced : No




[/mediainfo]

]]></description>
        <category>TV</category>
      <author>http://kickass.to/user/TryMeS/</author>        <link>http://kickass.to/ice-road-truckers-s08e02-1080p-web-dl-aac2-0-h-264-ntb-rartv-t9344525.html</link>
        <guid>http://kickass.to/ice-road-truckers-s08e02-1080p-web-dl-aac2-0-h-264-ntb-rartv-t9344525.html</guid>
        <pubDate>Fri, 18 Jul 2014 13:48:31 +0000</pubDate>
        <torrent:contentLength>1698409348</torrent:contentLength>
        <torrent:infoHash>9855B6DA62199B5CF98B0073D33D742BA1E5CCA7</torrent:infoHash>
        <torrent:magnetURI><![CDATA[magnet:?xt=urn:btih:9855B6DA62199B5CF98B0073D33D742BA1E5CCA7&dn=ice+road+truckers+s08e02+1080p+web+dl+aac2+0+h+264+ntb+rartv&tr=udp%3A%2F%2F12.rarbg.me%3A80%2Fannounce&tr=udp%3A%2F%2Fopen.demonii.com%3A1337]]></torrent:magnetURI>
        <torrent:seeds>16</torrent:seeds>
        <torrent:peers>19</torrent:peers>
        <torrent:verified>1</torrent:verified>
        <torrent:fileName>ice.road.truckers.s08e02.1080p.web.dl.aac2.0.h.264.ntb.rartv.torrent</torrent:fileName>
        <enclosure url="http://torcache.net/torrent/9855B6DA62199B5CF98B0073D33D742BA1E5CCA7.torrent?title=[kickass.to]ice.road.truckers.s08e02.1080p.web.dl.aac2.0.h.264.ntb.rartv" length="1698409348" type="application/x-bittorrent" />
    </item>
    <item>
        <title>Last Comic Standing S08E08 HDTV x264-BAJSKORV [eztv]</title>
      <description><![CDATA[Help us by donating with Bitcoin: 1EZTVaGQ6UsjYJ9fwqGnd45oZ6HGT7WKZd

#EZTV -&gt; To avoid fakes, ALWAYS check that the torrent was added by eztv.

https://eztv.it/

Episode: Last Comic Standing S08E08 HDTV x264-BAJSKORV
Screenshots:


]]></description>
        <category>TV</category>
      <author>http://kickass.to/user/EZTV/</author>        <link>http://kickass.to/last-comic-standing-s08e08-hdtv-x264-bajskorv-eztv-t9342756.html</link>
        <guid>http://kickass.to/last-comic-standing-s08e08-hdtv-x264-bajskorv-eztv-t9342756.html</guid>
        <pubDate>Fri, 18 Jul 2014 03:36:52 +0000</pubDate>
        <torrent:contentLength>364781825</torrent:contentLength>
        <torrent:infoHash>FEFAC5ACF68C5BB16EC4390BB4472C028AF9B092</torrent:infoHash>
        <torrent:magnetURI><![CDATA[magnet:?xt=urn:btih:FEFAC5ACF68C5BB16EC4390BB4472C028AF9B092&dn=last+comic+standing+s08e08+hdtv+x264+bajskorv+eztv&tr=udp%3A%2F%2Fopen.demonii.com%3A1337%2Fannounce]]></torrent:magnetURI>
        <torrent:seeds>137</torrent:seeds>
        <torrent:peers>671</torrent:peers>
        <torrent:verified>1</torrent:verified>
        <torrent:fileName>last.comic.standing.s08e08.hdtv.x264.bajskorv.eztv.torrent</torrent:fileName>
        <enclosure url="http://torcache.net/torrent/FEFAC5ACF68C5BB16EC4390BB4472C028AF9B092.torrent?title=[kickass.to]last.comic.standing.s08e08.hdtv.x264.bajskorv.eztv" length="364781825" type="application/x-bittorrent" />
    </item>
    <item>
        <title>Last Comic Standing S08E08 720p HDTV x264-BAJSKORV</title>
      <description><![CDATA[[b]last.comic.standing.s08e08.720p.hdtv.x264-bajskorv.mkv[/b]

[b]SIZE:[/b] 1346630787 bytes (1.25 GiB), 

[b]DURATION:[/b] 00:41:58, 

[b]AVG-BITRATE:[/b] 4278 kb/s

[b]AUDIO:[/b] ac3, 48000 Hz, stereo

[b]VIDEO:[/b] h264, yuv420p, 1280x720, 59.94 fps(r) (eng)

[b]SCREENS:[/b]
[url=http://www.vivaex.com/viewer.php?file=34029526572236219702.jpg][img]http://www.vivaex.com/images/34029526572236219702_thumb.jpg[/img][/url] 

[url=http://www.vivaex.com/viewer.php?file=88756501947670503481.jpg][size=150][b]View large Image[/b][/size][/url]

[url=http://www.vivaex.com/viewer.php?file=69478118357013223633.jpg][size=150][b]View large Image[/b][/size][/url]

[b]DESCRIPTION : [/b] 




[url=https://www.facebook.com/pages/High-Quality-Download-Links/1446110842281782]https://www.facebook.com/pages/High-Quality-Download-Links/1446110842281782[/url]

NOTE: If Rar files, then use winrar for decompress it http://www.rarlab.com/download.htm 
 Most of video format are supported by VLC http://www.videolan.org/vlc/]]></description>
        <category>TV</category>
      <author>http://kickass.to/user/brasse0/</author>        <link>http://kickass.to/last-comic-standing-s08e08-720p-hdtv-x264-bajskorv-t9342753.html</link>
        <guid>http://kickass.to/last-comic-standing-s08e08-720p-hdtv-x264-bajskorv-t9342753.html</guid>
        <pubDate>Fri, 18 Jul 2014 03:34:12 +0000</pubDate>
        <torrent:contentLength>1370425256</torrent:contentLength>
        <torrent:infoHash>4242DE8C5152254E4C59FF7890ECF7F9D1102BAF</torrent:infoHash>
        <torrent:magnetURI><![CDATA[magnet:?xt=urn:btih:4242DE8C5152254E4C59FF7890ECF7F9D1102BAF&dn=last+comic+standing+s08e08+720p+hdtv+x264+bajskorv&tr=udp%3A%2F%2Fopen.demonii.com%3A1337%2Fannounce]]></torrent:magnetURI>
        <torrent:seeds>5</torrent:seeds>
        <torrent:peers>15</torrent:peers>
        <torrent:verified>1</torrent:verified>
        <torrent:fileName>last.comic.standing.s08e08.720p.hdtv.x264.bajskorv.torrent</torrent:fileName>
        <enclosure url="http://torcache.net/torrent/4242DE8C5152254E4C59FF7890ECF7F9D1102BAF.torrent?title=[kickass.to]last.comic.standing.s08e08.720p.hdtv.x264.bajskorv" length="1370425256" type="application/x-bittorrent" />
    </item>
    <item>
        <title>Last Comic Standing S08E08 HDTV x264-BAJSKORV</title>
      <description><![CDATA[http://www.torrenting.com

Sign up is OPEN - for time being. Come and have fun.]]></description>
        <category>TV</category>
      <author>http://kickass.to/user/TvTeam/</author>        <link>http://kickass.to/last-comic-standing-s08e08-hdtv-x264-bajskorv-t9342698.html</link>
        <guid>http://kickass.to/last-comic-standing-s08e08-hdtv-x264-bajskorv-t9342698.html</guid>
        <pubDate>Fri, 18 Jul 2014 03:06:01 +0000</pubDate>
        <torrent:contentLength>372263098</torrent:contentLength>
        <torrent:infoHash>B6E67EC1DEEBE12544D7D5C9884329DAF9EF7AD4</torrent:infoHash>
        <torrent:magnetURI><![CDATA[magnet:?xt=urn:btih:B6E67EC1DEEBE12544D7D5C9884329DAF9EF7AD4&dn=last+comic+standing+s08e08+hdtv+x264+bajskorv&tr=udp%3A%2F%2Fopen.demonii.com%3A1337%2Fannounce]]></torrent:magnetURI>
        <torrent:seeds>32</torrent:seeds>
        <torrent:peers>274</torrent:peers>
        <torrent:verified>1</torrent:verified>
        <torrent:fileName>last.comic.standing.s08e08.hdtv.x264.bajskorv.torrent</torrent:fileName>
        <enclosure url="http://torcache.net/torrent/B6E67EC1DEEBE12544D7D5C9884329DAF9EF7AD4.torrent?title=[kickass.to]last.comic.standing.s08e08.hdtv.x264.bajskorv" length="372263098" type="application/x-bittorrent" />
    </item>
    <item>
        <title>Ice Road Truckers S08E02 Rushin Roulette HDTV XviD-AFG</title>
      <description><![CDATA[http://www.torrenting.com

Sign up is OPEN - for time being. Come and have fun.]]></description>
        <category>TV</category>
      <author>http://kickass.to/user/TvTeam/</author>        <link>http://kickass.to/ice-road-truckers-s08e02-rushin-roulette-hdtv-xvid-afg-t9336711.html</link>
        <guid>http://kickass.to/ice-road-truckers-s08e02-rushin-roulette-hdtv-xvid-afg-t9336711.html</guid>
        <pubDate>Wed, 16 Jul 2014 13:12:06 +0000</pubDate>
        <torrent:contentLength>453760918</torrent:contentLength>
        <torrent:infoHash>323B22D69640AF26F373145D00313DFA76DE8027</torrent:infoHash>
        <torrent:magnetURI><![CDATA[magnet:?xt=urn:btih:323B22D69640AF26F373145D00313DFA76DE8027&dn=ice+road+truckers+s08e02+rushin+roulette+hdtv+xvid+afg&tr=udp%3A%2F%2Fopen.demonii.com%3A1337%2Fannounce]]></torrent:magnetURI>
        <torrent:seeds>16</torrent:seeds>
        <torrent:peers>19</torrent:peers>
        <torrent:verified>1</torrent:verified>
        <torrent:fileName>ice.road.truckers.s08e02.rushin.roulette.hdtv.xvid.afg.torrent</torrent:fileName>
        <enclosure url="http://torcache.net/torrent/323B22D69640AF26F373145D00313DFA76DE8027.torrent?title=[kickass.to]ice.road.truckers.s08e02.rushin.roulette.hdtv.xvid.afg" length="453760918" type="application/x-bittorrent" />
    </item>
    <item>
        <title>Modern Marvels - S08E06 The St. Louis Arch (DVDrip H264)...Ctiger</title>
      <description><![CDATA[The St. Louis Arch is a majestic structure that rises boldly over the Mississippi River - made of 40,000 tons of steel and concrete, it is the biggest arch of its kind in the world. Nothing like it had ever been built before, nor attempted since. In this program, MODERN MARVELS delves into the way that its simple and elegant form results from a variety of remarkable achievements in construction and engineering.

[image=ZKx98VscPJ]

Source: Retail DVD
Length: 44:37
Size: 442MB
Container: mp4

Video stats
Codec: H264 - MPEG-4 AVC
Resolution: 720x486
Frame rate: 29.97

Audio stats
Codec: MPEG AAC Audio (mp4a)
Channels: Stereo (2)
Sample rate: 48kHz
Bit rate: 160k]]></description>
        <category>TV</category>
      <author>http://kickass.to/user/candidtiger/</author>        <link>http://kickass.to/modern-marvels-s08e06-the-st-louis-arch-dvdrip-h264-ctiger-t9334986.html</link>
        <guid>http://kickass.to/modern-marvels-s08e06-the-st-louis-arch-dvdrip-h264-ctiger-t9334986.html</guid>
        <pubDate>Wed, 16 Jul 2014 00:44:54 +0000</pubDate>
        <torrent:contentLength>463627164</torrent:contentLength>
        <torrent:infoHash>A45D5E69F29F20460BD2C68F126B453C663C4BC2</torrent:infoHash>
        <torrent:magnetURI><![CDATA[magnet:?xt=urn:btih:A45D5E69F29F20460BD2C68F126B453C663C4BC2&dn=modern+marvels+s08e06+the+st+louis+arch+dvdrip+h264+ctiger&tr=udp%3A%2F%2Fopen.demonii.com%3A1337%2Fannounce]]></torrent:magnetURI>
        <torrent:seeds>17</torrent:seeds>
        <torrent:peers>21</torrent:peers>
        <torrent:verified>1</torrent:verified>
        <torrent:fileName>modern.marvels.s08e06.the.st.louis.arch.dvdrip.h264.ctiger.torrent</torrent:fileName>
        <enclosure url="http://torcache.net/torrent/A45D5E69F29F20460BD2C68F126B453C663C4BC2.torrent?title=[kickass.to]modern.marvels.s08e06.the.st.louis.arch.dvdrip.h264.ctiger" length="463627164" type="application/x-bittorrent" />
    </item>
    <item>
        <title>Ice Road Truckers S08E02 Rushin Roulette HDTV XviD-ZiLLa avi</title>
      <description><![CDATA[[b]Ice.Road.Truckers.S08E02.Rushin.Roulette.HDTV.XviD-ZiLLa.avi[/b]
[IMG]https://yuq.me/users/18/485/fVCHupNyP8.png[/IMG]

Codec ID.....: XVID
Width........: 640 pixels
Height.......: 360 pixels
Audio........: MP3
Bit rate.....: 128 Kbps

N-joy

[b][size=200][color=red]ZiLLa[/color] [color=blue]Rips[/color][/size][/b]]]></description>
        <category>TV</category>
      <author>http://kickass.to/user/Maestral/</author>        <link>http://kickass.to/ice-road-truckers-s08e02-rushin-roulette-hdtv-xvid-zilla-avi-t9334378.html</link>
        <guid>http://kickass.to/ice-road-truckers-s08e02-rushin-roulette-hdtv-xvid-zilla-avi-t9334378.html</guid>
        <pubDate>Tue, 15 Jul 2014 19:41:48 +0000</pubDate>
        <torrent:contentLength>373750834</torrent:contentLength>
        <torrent:infoHash>A60537145A3FAFC2556BA31FEA9C3811DE0A79A7</torrent:infoHash>
        <torrent:magnetURI><![CDATA[magnet:?xt=urn:btih:A60537145A3FAFC2556BA31FEA9C3811DE0A79A7&dn=ice+road+truckers+s08e02+rushin+roulette+hdtv+xvid+zilla+avi&tr=udp%3A%2F%2Fopen.demonii.com%3A1337%2Fannounce]]></torrent:magnetURI>
        <torrent:seeds>78</torrent:seeds>
        <torrent:peers>125</torrent:peers>
        <torrent:verified>1</torrent:verified>
        <torrent:fileName>ice.road.truckers.s08e02.rushin.roulette.hdtv.xvid.zilla.avi.torrent</torrent:fileName>
        <enclosure url="http://torcache.net/torrent/A60537145A3FAFC2556BA31FEA9C3811DE0A79A7.torrent?title=[kickass.to]ice.road.truckers.s08e02.rushin.roulette.hdtv.xvid.zilla.avi" length="373750834" type="application/x-bittorrent" />
    </item>
    <item>
        <title>Ice Road Truckers S08E02 Rushin Roulette 480p HDTV x264-RMTeam</title>
      <description><![CDATA[_   /  |_   _|__ __ _ _ __  
 |   / |/| | | |/ -_) _` | &#039;   
 |_|__|  |_| |_|_____,_|_|_|_|
 
 
 Source: Ice Road Truckers S08E02 Rushin Roulette 720p HDTV x264-DHD (1GB)
 
 __--__--__--__--__--__--__--__--__--__--__--__--__--
 
 Filename: ice.road.truckers.s08e02.rushin.roulette.480p.hdtv.x264.rmteam.mkv
 Release Size: 329MB
 Resolution: 854x480
 Duration: 43m
 Framerate: 29.97
 Overall Bitrate: 1044Kbps
 Video Codec: h264
 Audio Codec: AAC @ 128Kbps, CBR, 2CH, 48KHz
 Subtitle: N/A
 
 __--__--__--__--__--__--__--__--__--__--__--__--__--
 
 IMDb: http://www.imdb.com/title/tt1068912
 
 __--__--__--__--__--__--__--__--__--__--__--__--__--
 
 Email: phpcoupon [at] gmail [dot] com
 
 
 Enjoy!]]></description>
        <category>TV</category>
        <link>http://kickass.to/ice-road-truckers-s08e02-rushin-roulette-480p-hdtv-x264-rmteam-t9333777.html</link>
        <guid>http://kickass.to/ice-road-truckers-s08e02-rushin-roulette-480p-hdtv-x264-rmteam-t9333777.html</guid>
        <pubDate>Tue, 15 Jul 2014 17:06:02 +0000</pubDate>
        <torrent:contentLength>344614736</torrent:contentLength>
        <torrent:infoHash>F740B0567AA6363BB4F3B454E7E914DBC223E916</torrent:infoHash>
        <torrent:magnetURI><![CDATA[magnet:?xt=urn:btih:F740B0567AA6363BB4F3B454E7E914DBC223E916&dn=ice+road+truckers+s08e02+rushin+roulette+480p+hdtv+x264+rmteam&tr=udp%3A%2F%2Fopen.demonii.com%3A1337%2Fannounce]]></torrent:magnetURI>
        <torrent:seeds>54</torrent:seeds>
        <torrent:peers>72</torrent:peers>
        <torrent:verified>1</torrent:verified>
        <torrent:fileName>ice.road.truckers.s08e02.rushin.roulette.480p.hdtv.x264.rmteam.torrent</torrent:fileName>
        <enclosure url="http://torcache.net/torrent/F740B0567AA6363BB4F3B454E7E914DBC223E916.torrent?title=[kickass.to]ice.road.truckers.s08e02.rushin.roulette.480p.hdtv.x264.rmteam" length="344614736" type="application/x-bittorrent" />
    </item>
    <item>
        <title>Ice Road Truckers S08E02 Rushin Roulette HDTV x264-DHD Rencode mp4</title>
      <description><![CDATA[Ice Road Truckers S08E02 Rushin Roulette HDTV x264-DHD Rencode mp4

Format : MPEG-4
Format profile : Base Media
Codec ID : isom
File size : 259 MiB
Duration : 42mn 59s
Overall bit rate mode : Variable
Overall bit rate : 842 Kbps
Writing application : Lavf54.63.104

Video
ID : 1
Format : AVC
Format/Info : Advanced Video Codec
Format profile : High@L3.0
Format settings, CABAC : Yes
Format settings, ReFrames : 4 frames
Codec ID : avc1
Codec ID/Info : Advanced Video Coding
Duration : 42mn 59s
Bit rate : 750 Kbps
Width : 720 pixels
Height : 400 pixels
Display aspect ratio : 16:9
Frame rate mode : Constant
Frame rate : 29.970 fps
Color space : YUV
Chroma subsampling : 4:2:0
Bit depth : 8 bits
Scan type : Progressive
Bits/(Pixel*Frame) : 0.087
Stream size : 232 MiB (89%)
Writing library : x264 core 120 r2151 a3f4407

Audio
ID : 2
Format : AAC
Format/Info : Advanced Audio Codec
Format profile : LC
Codec ID : 40
Duration : 42mn 59s
Duration_LastFrame : -21ms
Bit rate mode : Variable
Bit rate : 82.7 Kbps
Maximum bit rate : 128 Kbps
Channel(s) : 2 channels
Channel positions : Front: L R
Sampling rate : 24.0 KHz
Compression mode : Lossy
Stream size : 25.4 MiB (10%)

]]></description>
        <category>TV</category>
      <author>http://kickass.to/user/kotton2010/</author>        <link>http://kickass.to/ice-road-truckers-s08e02-rushin-roulette-hdtv-x264-dhd-rencode-mp4-t9331541.html</link>
        <guid>http://kickass.to/ice-road-truckers-s08e02-rushin-roulette-hdtv-x264-dhd-rencode-mp4-t9331541.html</guid>
        <pubDate>Tue, 15 Jul 2014 04:02:45 +0000</pubDate>
        <torrent:contentLength>271507384</torrent:contentLength>
        <torrent:infoHash>50E5C0A0BA8D6892DAD5C7D13286294DF5C46367</torrent:infoHash>
        <torrent:magnetURI><![CDATA[magnet:?xt=urn:btih:50E5C0A0BA8D6892DAD5C7D13286294DF5C46367&dn=ice+road+truckers+s08e02+rushin+roulette+hdtv+x264+dhd+rencode+mp4&tr=udp%3A%2F%2Fopen.demonii.com%3A1337%2Fannounce]]></torrent:magnetURI>
        <torrent:seeds>73</torrent:seeds>
        <torrent:peers>90</torrent:peers>
        <torrent:verified>1</torrent:verified>
        <torrent:fileName>ice.road.truckers.s08e02.rushin.roulette.hdtv.x264.dhd.rencode.mp4.torrent</torrent:fileName>
        <enclosure url="http://torcache.net/torrent/50E5C0A0BA8D6892DAD5C7D13286294DF5C46367.torrent?title=[kickass.to]ice.road.truckers.s08e02.rushin.roulette.hdtv.x264.dhd.rencode.mp4" length="271507384" type="application/x-bittorrent" />
    </item>
    <item>
        <title>Ice Road Truckers S08E02 Rushin Roulette 720p HDTV x264-DHD</title>
      <description><![CDATA[[b]Ice.Road.Truckers.S08E02.Rushin.Roulette.720p.HDTV.x264-DHD.mkv[/b]

[b]SIZE:[/b] 1274502906 bytes (1.19 GiB), 

[b]DURATION:[/b] 00:42:59, 

[b]AVG-BITRATE:[/b] 3953 kb/s

[b]AUDIO:[/b] ac3, 48000 Hz, 5:1

[b]VIDEO:[/b] h264, yuv420p, 1280x720, 29.97 fps(r)

[b]SCREENS:[/b]
[url=http://www.vivaex.com/viewer.php?file=94265981837951725494.jpg][img]http://www.vivaex.com/images/94265981837951725494_thumb.jpg[/img][/url] 

[url=http://www.vivaex.com/viewer.php?file=54058233281934394308.jpg][size=150][b]View large Image[/b][/size][/url]

[url=http://www.vivaex.com/viewer.php?file=88726050361258248969.jpg][size=150][b]View large Image[/b][/size][/url]

[b]DESCRIPTION : [/b]It&#039;s a race against Mother Nature as the ice road truckers rush to get critical loads delivered while the storm of the century approaches. Lisa and Art face a deadly shutdown on the ice, ... 




[url=https://www.facebook.com/pages/High-Quality-Download-Links/1446110842281782]https://www.facebook.com/pages/High-Quality-Download-Links/1446110842281782[/url]

NOTE: If Rar files, then use winrar for decompress it http://www.rarlab.com/download.htm 
 Most of video format are supported by VLC http://www.videolan.org/vlc/]]></description>
        <category>TV</category>
      <author>http://kickass.to/user/brasse0/</author>        <link>http://kickass.to/ice-road-truckers-s08e02-rushin-roulette-720p-hdtv-x264-dhd-t9331435.html</link>
        <guid>http://kickass.to/ice-road-truckers-s08e02-rushin-roulette-720p-hdtv-x264-dhd-t9331435.html</guid>
        <pubDate>Tue, 15 Jul 2014 03:16:42 +0000</pubDate>
        <torrent:contentLength>1306656657</torrent:contentLength>
        <torrent:infoHash>BCA37DC79809B8AF5005722CF3FECFC034A50DF1</torrent:infoHash>
        <torrent:magnetURI><![CDATA[magnet:?xt=urn:btih:BCA37DC79809B8AF5005722CF3FECFC034A50DF1&dn=ice+road+truckers+s08e02+rushin+roulette+720p+hdtv+x264+dhd&tr=http%3A%2F%2Ftracker.secureboxes.net%2Fannounce&tr=udp%3A%2F%2Fopen.demonii.com%3A1337]]></torrent:magnetURI>
        <torrent:seeds>1</torrent:seeds>
        <torrent:peers>9</torrent:peers>
        <torrent:verified>1</torrent:verified>
        <torrent:fileName>ice.road.truckers.s08e02.rushin.roulette.720p.hdtv.x264.dhd.torrent</torrent:fileName>
        <enclosure url="http://torcache.net/torrent/BCA37DC79809B8AF5005722CF3FECFC034A50DF1.torrent?title=[kickass.to]ice.road.truckers.s08e02.rushin.roulette.720p.hdtv.x264.dhd" length="1306656657" type="application/x-bittorrent" />
    </item>
    <item>
        <title>Ice.Road.Truckers.S08E02.Rushin.Roulette.720p.HDTV.x264-DHD[rartv]</title>
      <description><![CDATA[Ice.Road.Truckers.S08E02.Rushin.Roulette.720p.HDTV.x264-DHD[rartv]

[img]//dyncdn.me/posters2/3/318da05d92ad651992ce8f60eee45b7efedee679.jpg[/img]



[mediainfo]

Video
ID : 1
Format : AVC
Format/Info : Advanced Video Codec
Format profile : High@L4.1
Format settings, CABAC : Yes
Format settings, ReFrames : 5 frames
Codec ID : V_MPEG4/ISO/AVC
Duration : 42mn 59s
Bit rate : 3 490 Kbps
Width : 1 280 pixels
Height : 720 pixels
Display aspect ratio : 16:9
Frame rate mode : Constant
Frame rate : 29.970 fps
Color space : YUV
Chroma subsampling : 4:2:0
Bit depth : 8 bits
Scan type : Progressive
Bits/(Pixel*Frame) : 0.126
Stream size : 1.05 GiB (88%)
Writing library : x264 core 142 r2431 ac76440
Encoding settings : cabac=1 / ref=5 / deblock=1:0:0 / analyse=0x3:0x113 / me=umh / subme=8 / psy=1 / psy_rd=1.00:0.00 / mixed_ref=1 / me_range=16 / chroma_me=1 / trellis=1 / 8x8dct=1 / cqm=0 / deadzone=21,11 / fast_pskip=1 / chroma_qp_offset=-2 / threads=12 / lookahead_threads=2 / sliced_threads=0 / nr=0 / decimate=1 / interlaced=0 / bluray_compat=0 / constrained_intra=0 / bframes=3 / b_pyramid=2 / b_adapt=2 / b_bias=0 / direct=3 / weightb=1 / open_gop=0 / weightp=2 / keyint=250 / keyint_min=25 / scenecut=40 / intra_refresh=0 / rc_lookahead=50 / rc=crf / mbtree=1 / crf=21.0 / qcomp=0.60 / qpmin=0 / qpmax=69 / qpstep=4 / ip_ratio=1.40 / aq=1:1.00
Default : Yes
Forced : No
Matrix coefficients : BT.709

Audio
ID : 2
Format : AC-3
Format/Info : Audio Coding 3
Mode extension : CM (complete main)
Format settings, Endianness : Big
Codec ID : A_AC3
Duration : 42mn 59s
Bit rate mode : Constant
Bit rate : 384 Kbps
Channel(s) : 6 channels
Channel positions : Front: L C R, Side: L R, LFE
Sampling rate : 48.0 KHz
Bit depth : 16 bits
Compression mode : Lossy
Stream size : 118 MiB (10%)
Default : Yes
Forced : No




[/mediainfo]

]]></description>
        <category>TV</category>
      <author>http://kickass.to/user/TryMeS/</author>        <link>http://kickass.to/ice-road-truckers-s08e02-rushin-roulette-720p-hdtv-x264-dhd-rartv-t9331419.html</link>
        <guid>http://kickass.to/ice-road-truckers-s08e02-rushin-roulette-720p-hdtv-x264-dhd-rartv-t9331419.html</guid>
        <pubDate>Tue, 15 Jul 2014 03:09:39 +0000</pubDate>
        <torrent:contentLength>1274503431</torrent:contentLength>
        <torrent:infoHash>318DA05D92AD651992CE8F60EEE45B7EFEDEE679</torrent:infoHash>
        <torrent:magnetURI><![CDATA[magnet:?xt=urn:btih:318DA05D92AD651992CE8F60EEE45B7EFEDEE679&dn=ice+road+truckers+s08e02+rushin+roulette+720p+hdtv+x264+dhd+rartv&tr=udp%3A%2F%2F12.rarbg.me%3A80%2Fannounce&tr=udp%3A%2F%2Fopen.demonii.com%3A1337]]></torrent:magnetURI>
        <torrent:seeds>175</torrent:seeds>
        <torrent:peers>225</torrent:peers>
        <torrent:verified>1</torrent:verified>
        <torrent:fileName>ice.road.truckers.s08e02.rushin.roulette.720p.hdtv.x264.dhd.rartv.torrent</torrent:fileName>
        <enclosure url="http://torcache.net/torrent/318DA05D92AD651992CE8F60EEE45B7EFEDEE679.torrent?title=[kickass.to]ice.road.truckers.s08e02.rushin.roulette.720p.hdtv.x264.dhd.rartv" length="1274503431" type="application/x-bittorrent" />
    </item>
    <item>
        <title>Doctor Who S08E01 PREAiR SCREENER AAC2 0 x264 NOGRP</title>
      <description><![CDATA[[b]Doctor.Who.S08E01.PREAiR.SCREENER.AAC2.0.x264-NOGRP.mp4[/b]

[b]SIZE:[/b] 1602924159 bytes (1.49 GiB), 

[b]DURATION:[/b] 01:15:57, 

[b]AVG-BITRATE:[/b] 2814 kb/s

[b]AUDIO:[/b] aac, 48000 Hz, stereo (eng)

[b]VIDEO:[/b] h264, yuv420p, 720x404, 25.00 fps(r) (eng)

[b]SCREENS:[/b]
[url=http://www.vivaex.com/viewer.php?file=99523997171493566394.jpg][img]http://www.vivaex.com/images/99523997171493566394_thumb.jpg[/img][/url] 

[url=http://www.vivaex.com/viewer.php?file=95559968498714071048.jpg][size=150][b]View large Image[/b][/size][/url]

[url=http://www.vivaex.com/viewer.php?file=31068617996354620565.jpg][size=150][b]View large Image[/b][/size][/url]



[url=https://www.facebook.com/pages/High-Quality-Download-Links/1446110842281782]https://www.facebook.com/pages/High-Quality-Download-Links/1446110842281782[/url]]]></description>
        <category>TV</category>
      <author>http://kickass.to/user/brasse0/</author>        <link>http://kickass.to/doctor-who-s08e01-preair-screener-aac2-0-x264-nogrp-t9328185.html</link>
        <guid>http://kickass.to/doctor-who-s08e01-preair-screener-aac2-0-x264-nogrp-t9328185.html</guid>
        <pubDate>Mon, 14 Jul 2014 05:15:40 +0000</pubDate>
        <torrent:contentLength>1602924159</torrent:contentLength>
        <torrent:infoHash>6F09A04786CE71692C6F379AB9E25849FD845D62</torrent:infoHash>
        <torrent:magnetURI><![CDATA[magnet:?xt=urn:btih:6F09A04786CE71692C6F379AB9E25849FD845D62&dn=doctor+who+s08e01+preair+screener+aac2+0+x264+nogrp&tr=http%3A%2F%2Ftracker.secureboxes.net%2Fannounce&tr=udp%3A%2F%2Fopen.demonii.com%3A1337]]></torrent:magnetURI>
        <torrent:seeds>219</torrent:seeds>
        <torrent:peers>360</torrent:peers>
        <torrent:verified>1</torrent:verified>
        <torrent:fileName>doctor.who.s08e01.preair.screener.aac2.0.x264.nogrp.torrent</torrent:fileName>
        <enclosure url="http://torcache.net/torrent/6F09A04786CE71692C6F379AB9E25849FD845D62.torrent?title=[kickass.to]doctor.who.s08e01.preair.screener.aac2.0.x264.nogrp" length="1602924159" type="application/x-bittorrent" />
    </item>
    </channel>
</rss>
